<?xml version="1.0" standalone="no"?>
<!DOCTYPE svg PUBLIC "-//W3C//DTD SVG 1.0//EN" "http://www.w3.org/TR/2001/REC-SVG-20010904/DTD/svg10.dtd">
<svg xmlns="http://www.w3.org/2000/svg" xmlns:xlink="http://www.w3.org/1999/xlink" id="body_1" width="24" height="24">

<g transform="matrix(0.06703912 0 0 0.06703912 0 0)">
	<g transform="matrix(0.1 0 -0 -0.1 0 358)">
        <path d="M1015 3513C 896 3444 744 3287 661 3148C 461 2811 448 2404 627 2045C 768 1764 947 1580 1208 1450C 1262 1423 1270 1416 1270 1391L1270 1391L1270 1363L1162 1356C 951 1344 831 1293 700 1161C 567 1027 507 885 507 705C 507 400 708 145 1008 69C 1084 50 1115 49 1766 52L1766 52L2445 55L2530 85C 2633 121 2742 192 2809 267C 2870 335 2932 451 2956 540C 2977 619 2979 774 2961 850C 2927 988 2833 1136 2727 1216C 2608 1306 2496 1345 2324 1356C 2233 1362 2220 1365 2220 1381C 2220 1393 2245 1412 2302 1442C 2530 1560 2738 1767 2853 1988C 2923 2122 2955 2219 2975 2349C 3022 2662 2951 2955 2760 3240C 2681 3357 2580 3456 2461 3532L2461 3532L2416 3560L1755 3560L1095 3560L1015 3513zM2421 3271C 2515 3198 2628 3038 2679 2904C 2692 2871 2706 2836 2710 2825C 2726 2786 2739 2724 2751 2638C 2765 2535 2751 2377 2718 2265C 2627 1954 2344 1676 2023 1581C 1827 1523 1670 1530 1450 1605C 1160 1705 978 1864 845 2135C 760 2307 745 2372 745 2575C 745 2766 758 2828 827 2965C 895 3099 1001 3226 1104 3294L1104 3294L1143 3320L1750 3320L2357 3320L2421 3271zM2485 1151C 2679 1073 2800 899 2800 697C 2799 484 2632 280 2425 240C 2383 232 2171 230 1705 232L1705 232L1045 235L988 258C 664 389 580 805 829 1043C 892 1104 985 1154 1061 1169C 1085 1174 1402 1177 1765 1177L1765 1177L2425 1175L2485 1151z" stroke="none" fill="#ffffff" fill-rule="nonzero" />
        <path d="M1242 3204C 1165 3166 1054 3056 991 2956C 941 2875 874 2712 887 2700C 890 2697 895 2701 898 2708C 909 2740 968 2795 1015 2816C 1160 2884 1341 2806 1385 2656C 1404 2593 1404 2564 1384 2502C 1362 2436 1324 2391 1259 2355C 1212 2329 1195 2325 1130 2325C 1072 2325 1045 2331 1014 2347C 960 2376 912 2425 888 2475L888 2475L869 2515L874 2448C 888 2268 980 2070 1121 1916C 1187 1844 1330 1749 1434 1709C 1541 1667 1677 1640 1775 1640C 2075 1641 2393 1848 2535 2135C 2592 2250 2610 2320 2616 2445L2616 2445L2620 2545L2603 2497C 2584 2441 2522 2373 2467 2346C 2417 2323 2335 2315 2285 2329C 2182 2356 2111 2434 2088 2541C 2056 2694 2184 2840 2350 2840C 2450 2840 2525 2798 2583 2710C 2607 2676 2604 2703 2580 2750C 2569 2772 2560 2795 2560 2802C 2560 2824 2494 2956 2451 3018C 2410 3080 2343 3144 2270 3195C 2234 3220 2216 3225 2156 3227L2156 3227L2085 3230L2135 3206C 2223 3165 2270 3094 2270 3005C 2270 2883 2176 2790 2052 2790C 1936 2790 1848 2881 1847 3004C 1846 3102 1893 3171 1990 3213C 2022 3227 2005 3228 1755 3228C 1505 3228 1488 3227 1520 3213C 1616 3171 1663 3104 1663 3005C 1663 2882 1575 2790 1458 2790C 1334 2790 1240 2883 1240 3005C 1240 3094 1288 3165 1375 3206L1375 3206L1425 3229L1359 3229C 1308 3230 1283 3224 1242 3204zM1867 2817C 1914 2792 1969 2734 1991 2686C 2017 2628 2016 2533 1989 2475C 1948 2389 1840 2320 1745 2320C 1603 2320 1480 2442 1480 2582C 1480 2692 1555 2798 1656 2830C 1700 2844 1830 2836 1867 2817zM1540 2298C 1743 2210 1746 1933 1546 1827C 1490 1798 1373 1796 1315 1825C 1186 1888 1124 2052 1185 2169C 1255 2305 1402 2358 1540 2298zM2151 2310C 2198 2297 2275 2229 2303 2176C 2336 2113 2334 2000 2298 1940C 2243 1846 2170 1805 2060 1805C 1975 1806 1938 1820 1877 1879C 1830 1923 1813 1953 1799 2019C 1780 2110 1825 2216 1907 2273C 1981 2326 2056 2337 2151 2310z" stroke="none" fill="#ffffff" fill-rule="nonzero" />
        <path d="M1710 2699C 1632 2683 1592 2578 1641 2516C 1684 2462 1744 2447 1806 2476C 1848 2496 1870 2535 1870 2589C 1870 2665 1795 2717 1710 2699z" stroke="none" fill="#ffffff" fill-rule="nonzero" />
        <path d="M1374 2171C 1306 2140 1282 2065 1320 2003C 1377 1909 1514 1924 1550 2028C 1564 2068 1563 2073 1545 2107C 1505 2179 1442 2203 1374 2171z" stroke="none" fill="#ffffff" fill-rule="nonzero" />
        <path d="M2026 2180C 1956 2158 1917 2082 1943 2017C 1983 1923 2116 1914 2170 2003C 2194 2042 2195 2071 2174 2115C 2148 2171 2086 2198 2026 2180z" stroke="none" fill="#ffffff" fill-rule="nonzero" />
        <path d="M1400 3060C 1388 3048 1380 3027 1380 3005C 1380 2960 1409 2930 1453 2930C 1497 2930 1524 2960 1524 3007C 1524 3071 1445 3105 1400 3060z" stroke="none" fill="#ffffff" fill-rule="nonzero" />
        <path d="M2009 3061C 1980 3038 1978 2980 2005 2950C 2047 2903 2130 2939 2130 3005C 2130 3070 2060 3102 2009 3061z" stroke="none" fill="#ffffff" fill-rule="nonzero" />
        <path d="M1096 2699C 990 2669 974 2525 1071 2474C 1178 2419 1296 2527 1245 2633C 1218 2690 1158 2717 1096 2699z" stroke="none" fill="#ffffff" fill-rule="nonzero" />
        <path d="M2313 2699C 2278 2689 2233 2641 2224 2604C 2215 2567 2241 2508 2279 2483C 2349 2436 2442 2467 2469 2546C 2482 2583 2481 2590 2464 2625C 2433 2689 2376 2716 2313 2699z" stroke="none" fill="#ffffff" fill-rule="nonzero" />
        <path d="M2177 1090C 1970 1055 1829 831 1884 625C 1904 547 1933 499 1994 442C 2076 364 2124 346 2245 345C 2333 345 2352 348 2402 372C 2481 409 2544 470 2583 549C 2609 603 2616 628 2619 697C 2627 898 2506 1054 2315 1089C 2250 1101 2246 1101 2177 1090zM2297 960C 2478 920 2551 695 2429 556C 2293 402 2049 470 2009 673C 1985 789 2056 911 2170 950C 2235 973 2236 973 2297 960z" stroke="none" fill="#ffffff" fill-rule="nonzero" />
        <path d="M2178 814C 2143 796 2120 752 2120 704C 2120 675 2128 660 2159 629C 2191 596 2204 590 2239 590C 2322 590 2370 637 2370 716C 2370 757 2365 767 2334 796C 2304 825 2291 830 2252 830C 2226 829 2193 823 2178 814z" stroke="none" fill="#ffffff" fill-rule="nonzero" />
        <path d="M1155 1081C 1042 1052 940 968 894 867C 868 812 865 794 865 705C 866 615 869 599 895 545C 931 469 999 402 1075 364C 1129 338 1145 335 1235 335C 1324 335 1341 338 1392 363C 1679 504 1680 914 1394 1050C 1328 1082 1214 1097 1155 1081zM1340 929C 1381 908 1432 857 1454 814C 1509 704 1464 559 1356 495C 1164 383 935 569 1004 781C 1026 849 1055 886 1109 918C 1184 962 1267 966 1340 929z" stroke="none" fill="#ffffff" fill-rule="nonzero" />
        <path d="M1146 796C 1116 768 1110 756 1110 721C 1110 639 1158 590 1240 590C 1325 590 1386 691 1346 768C 1325 808 1283 830 1226 830C 1189 830 1175 824 1146 796z" stroke="none" fill="#ffffff" fill-rule="nonzero" />
	</g>
</g>
</svg>