<?xml version="1.0" standalone="no"?>
<!DOCTYPE svg PUBLIC "-//W3C//DTD SVG 1.0//EN" "http://www.w3.org/TR/2001/REC-SVG-20010904/DTD/svg10.dtd">
<svg xmlns="http://www.w3.org/2000/svg" xmlns:xlink="http://www.w3.org/1999/xlink" id="body_1" width="24" height="24">

<g transform="matrix(0.09266409 0 0 0.09266409 0 0)">
	<g transform="matrix(0.1 0 -0 -0.1 0 259)">
        <path d="M1155 2530C 1006 2510 842 2455 684 2370L684 2370L593 2322L504 2340L415 2359L301 2246L188 2133L207 2049L226 1965L174 1849C 82 1646 46 1490 46 1295C 47 873 202 555 527 311C 785 117 1056 29 1345 43C 1606 57 1835 136 2029 280C 2248 442 2418 676 2485 904C 2537 1084 2553 1321 2525 1500C 2507 1620 2482 1693 2410 1836L2410 1836L2353 1951L2376 2033L2400 2115L2278 2237L2155 2359L2077 2342L1998 2324L1852 2397C 1614 2515 1381 2559 1155 2530zM1555 2435C 1643 2415 1697 2395 1827 2330L1827 2330L1989 2250L2061 2267L2132 2283L2227 2188L2322 2093L2300 2020L2278 1947L2349 1801C 2388 1721 2429 1619 2440 1575C 2479 1425 2476 1164 2434 981C 2381 754 2213 507 2005 349C 1794 189 1571 116 1295 115C 1117 115 1022 132 876 191C 544 323 272 596 176 893C 74 1208 97 1522 245 1837L245 1837L301 1955L286 2017C 277 2051 270 2087 270 2097C 270 2107 308 2153 354 2199L354 2199L439 2283L521 2267L603 2250L729 2314C 900 2400 1015 2439 1175 2464C 1246 2475 1448 2459 1555 2435z" stroke="none" fill="#000000" fill-rule="nonzero" />
        <path d="M1227 2270C 1105 2239 1016 2140 995 2013C 980 1922 1038 1792 1117 1737C 1270 1631 1471 1680 1558 1845C 1581 1888 1585 1908 1585 1980C 1585 2056 1582 2071 1555 2119C 1491 2235 1350 2300 1227 2270zM1222 2189C 1219 2157 1223 2143 1241 2124C 1293 2069 1376 2111 1368 2189C 1366 2212 1366 2230 1368 2230C 1369 2230 1388 2221 1409 2211C 1464 2182 1540 2092 1540 2055C 1540 2052 1527 2053 1510 2056C 1447 2069 1399 2007 1424 1945C 1440 1908 1471 1894 1515 1902C 1548 1909 1547 1895 1510 1837C 1483 1794 1402 1730 1375 1730C 1369 1730 1366 1746 1368 1771C 1371 1803 1367 1817 1349 1836C 1297 1891 1214 1849 1222 1771C 1224 1748 1222 1730 1217 1730C 1198 1730 1132 1771 1104 1802C 1078 1829 1040 1889 1040 1902C 1040 1904 1058 1904 1079 1902C 1131 1897 1160 1924 1160 1979C 1160 2030 1122 2064 1073 2057C 1042 2052 1042 2052 1051 2080C 1066 2123 1125 2185 1172 2209C 1196 2220 1217 2230 1220 2230C 1223 2230 1224 2212 1222 2189zM1335 2206C 1354 2178 1341 2134 1313 2128C 1263 2117 1228 2166 1256 2207C 1275 2237 1315 2237 1335 2206zM1125 2010C 1158 1974 1118 1910 1071 1925C 1061 1928 1048 1942 1041 1956C 1016 2012 1084 2055 1125 2010zM1528 2018C 1548 1998 1542 1953 1518 1936C 1506 1927 1492 1920 1488 1920C 1473 1920 1440 1960 1440 1979C 1440 2020 1499 2047 1528 2018zM1340 1799C 1356 1771 1329 1730 1295 1730C 1244 1730 1227 1806 1273 1828C 1299 1839 1325 1828 1340 1799z" stroke="none" fill="#000000" fill-rule="nonzero" />
        <path d="M684 1689C 576 1675 452 1592 396 1496C 329 1381 321 1218 377 1098C 419 1008 486 938 569 897C 630 867 641 865 740 865C 839 865 850 867 911 897C 1119 1000 1205 1254 1101 1465C 1021 1626 859 1713 684 1689zM819 1413C 852 1389 890 1315 890 1275C 890 1220 850 1158 798 1132C 758 1112 747 1110 711 1120C 605 1148 560 1278 624 1372C 669 1438 758 1457 819 1413z" stroke="none" fill="#000000" fill-rule="nonzero" />
        <path d="M1794 1690C 1640 1668 1506 1544 1465 1385C 1413 1185 1505 983 1688 897C 1749 868 1763 865 1855 865C 1947 865 1961 868 2023 897C 2275 1017 2338 1349 2149 1565C 2067 1658 1924 1709 1794 1690zM1930 1412C 1944 1402 1966 1378 1978 1359C 1998 1331 2001 1315 1998 1267C 1991 1176 1935 1117 1855 1117C 1719 1117 1658 1300 1762 1397C 1811 1443 1879 1449 1930 1412z" stroke="none" fill="#000000" fill-rule="nonzero" />
        <path d="M1225 871C 1133 847 1061 787 1022 701C 955 555 1020 381 1168 309C 1204 291 1233 286 1290 285C 1412 285 1503 341 1562 453C 1581 487 1585 511 1585 580C 1585 673 1569 716 1509 784C 1449 853 1314 894 1225 871zM1341 802C 1363 746 1288 703 1256 753C 1237 781 1245 815 1273 827C 1304 841 1330 831 1341 802zM1222 786C 1219 749 1222 740 1245 721C 1260 710 1283 700 1295 700C 1307 700 1330 710 1345 721C 1368 740 1371 749 1368 786C 1365 826 1367 829 1385 823C 1426 810 1481 766 1510 722C 1547 665 1549 647 1515 656C 1472 667 1440 652 1424 615C 1412 584 1412 576 1424 545C 1440 508 1472 493 1515 504C 1594 524 1468 363 1383 336C 1363 330 1362 332 1367 368C 1373 416 1359 445 1322 458C 1259 480 1209 430 1224 360C 1231 322 1218 321 1158 359C 1110 390 1068 438 1051 482C 1041 508 1042 508 1076 503C 1103 498 1116 502 1135 520C 1192 573 1150 669 1076 657C 1042 652 1041 652 1051 678C 1068 722 1110 770 1158 801C 1183 817 1209 830 1215 830C 1221 830 1224 813 1222 786zM1124 614C 1157 582 1132 530 1085 530C 1070 530 1054 540 1044 555C 1029 578 1029 582 1044 605C 1063 634 1100 638 1124 614zM1528 618C 1535 611 1540 594 1540 580C 1540 546 1523 530 1488 530C 1451 530 1431 568 1448 605C 1461 632 1506 640 1528 618zM1330 420C 1341 409 1350 394 1350 387C 1350 363 1319 330 1295 330C 1271 330 1240 363 1240 387C 1240 405 1277 440 1295 440C 1303 440 1319 431 1330 420z" stroke="none" fill="#000000" fill-rule="nonzero" />
	</g>
</g>
</svg>