<?xml version="1.0" standalone="no"?>
<!DOCTYPE svg PUBLIC "-//W3C//DTD SVG 20010904//EN"
 "http://www.w3.org/TR/2001/REC-SVG-20010904/DTD/svg10.dtd">
<svg version="1.0" xmlns="http://www.w3.org/2000/svg"
 width="735.000000pt" height="445.000000pt" viewBox="0 0 735.000000 445.000000"
 preserveAspectRatio="xMidYMid meet">

<g transform="translate(0.000000,445.000000) scale(0.100000,-0.100000)"
fill="#000000" stroke="none">
<path d="M4700 4428 c-121 -18 -242 -103 -289 -202 -11 -25 -32 -89 -47 -143
-32 -120 -51 -159 -103 -206 -121 -109 -304 -128 -566 -56 -118 32 -268 59
-330 59 -191 0 -387 -93 -494 -236 -102 -133 -143 -285 -121 -445 25 -182 114
-326 281 -452 74 -56 173 -75 277 -53 85 18 132 41 195 96 64 57 90 105 126
239 18 62 41 131 52 153 31 62 92 121 156 153 50 25 70 29 143 30 67 0 95 -5
132 -22 100 -46 188 -160 188 -243 0 -19 -9 -73 -21 -120 -30 -125 -12 -196
69 -274 53 -52 155 -106 198 -106 71 0 148 51 201 133 13 22 38 90 54 153 16
63 38 134 50 159 31 65 95 127 172 165 56 27 78 33 134 32 145 -1 258 -77 325
-217 34 -72 37 -147 12 -276 -29 -150 -18 -231 45 -323 54 -78 132 -134 252
-182 90 -35 470 -127 679 -164 140 -25 209 -48 319 -108 150 -81 213 -171 212
-301 -1 -166 -109 -296 -281 -340 -187 -47 -321 -59 -415 -35 -23 6 -25 10
-25 69 0 55 -5 71 -39 130 -49 84 -66 187 -58 357 4 88 2 120 -8 128 -7 6 -68
17 -136 25 -140 17 -175 26 -309 83 -137 58 -444 162 -670 226 -349 99 -660
150 -1005 164 -231 10 -553 -1 -705 -23 -200 -29 -476 -117 -708 -226 -46 -21
-86 -39 -88 -39 -2 0 -119 -56 -260 -125 l-257 -125 -166 -15 c-232 -20 -570
-70 -671 -99 -304 -88 -450 -148 -612 -256 l-78 -51 0 -57 c0 -46 -4 -60 -20
-70 -31 -19 -28 -121 5 -178 37 -64 51 -143 32 -181 -20 -38 -12 -49 49 -68
65 -20 381 -65 459 -65 l63 0 -24 58 c-82 204 4 450 198 560 29 16 86 38 127
48 146 35 304 -12 413 -122 67 -67 102 -128 124 -215 18 -69 15 -176 -7 -237
-10 -30 -9 -34 16 -54 l28 -22 916 2 c504 1 1115 5 1357 9 l442 6 -19 55 c-12
36 -19 83 -19 133 0 229 157 413 385 451 188 31 387 -76 476 -256 30 -63 34
-80 37 -170 4 -98 -4 -139 -43 -228 -6 -17 1 -18 93 -18 76 0 123 6 198 26 55
15 122 30 149 34 80 12 197 50 238 76 43 28 63 67 82 159 11 54 14 60 36 57
93 -10 232 -3 309 16 47 11 103 24 125 28 110 19 224 108 274 214 102 215 -8
420 -294 551 -62 28 -156 57 -210 65 -57 8 -260 46 -265 49 -3 2 -72 17 -152
34 -278 57 -388 103 -479 200 -94 100 -113 196 -75 366 49 214 -32 389 -219
477 -60 28 -72 30 -153 26 -72 -3 -98 -8 -154 -35 -81 -38 -145 -96 -180 -160
-14 -26 -40 -99 -57 -162 -46 -164 -81 -225 -151 -261 -73 -37 -150 -17 -235
61 -84 78 -103 155 -70 279 31 115 15 196 -54 272 -110 123 -255 157 -414 98
-131 -49 -207 -142 -243 -298 -38 -162 -96 -247 -209 -305 -76 -39 -194 -49
-272 -23 -61 20 -168 106 -224 181 -69 92 -101 182 -106 305 -3 58 0 132 6
165 35 193 203 369 398 419 124 32 237 26 448 -24 305 -71 443 -70 571 6 100
59 136 112 180 265 36 127 60 176 112 226 146 142 383 138 506 -8 85 -101 105
-222 66 -392 -28 -121 -25 -211 10 -279 31 -63 58 -87 120 -108 40 -14 55 -25
68 -51 24 -49 69 -66 217 -83 180 -22 218 -27 231 -31 17 -5 21 26 23 186 l2
142 -169 -7 c-237 -10 -279 -23 -308 -93 -14 -32 -18 -35 -47 -29 -48 10 -73
31 -101 87 -33 66 -34 127 -5 274 40 207 10 326 -112 439 -87 81 -188 112
-309 94z m1007 -925 c-3 -85 -7 -118 -17 -121 -11 -4 -12 13 -7 88 4 51 7 106
7 122 0 15 5 28 11 28 7 0 9 -39 6 -117z m-53 -6 c-4 -53 -11 -97 -16 -97 -9
0 -9 172 0 198 3 8 8 10 14 4 5 -5 6 -51 2 -105z m-52 4 c-2 -46 -8 -81 -14
-81 -9 0 -10 129 0 157 11 32 17 -2 14 -76z m-52 4 c0 -30 -4 -55 -10 -55 -11
0 -14 93 -3 103 12 12 13 8 13 -48z m-1350 -1141 c47 -2 117 -9 155 -14 39 -6
121 -17 184 -25 138 -18 378 -76 454 -109 59 -27 80 -57 56 -82 -53 -52 -613
-128 -1118 -151 -126 -5 -144 -4 -139 9 4 8 20 66 37 129 43 157 62 221 73
243 9 17 19 18 112 12 55 -4 139 -9 186 -12z m-430 -2 c0 -4 -26 -93 -59 -197
l-58 -190 -94 -8 c-228 -18 -1125 -63 -1137 -57 -9 4 11 22 60 52 76 47 313
178 323 178 2 0 49 20 102 44 177 79 454 159 623 179 65 7 240 7 240 -1z
m2354 -464 c30 -13 35 -26 38 -97 4 -78 -4 -81 -186 -80 -175 0 -229 7 -234
30 -5 29 174 145 247 160 42 9 100 3 135 -13z m-5110 -224 c11 -28 7 -32 -90
-93 -105 -65 -191 -94 -218 -72 -10 8 -26 9 -54 2 -35 -7 -44 -6 -59 11 -16
18 -16 20 12 43 48 40 165 94 235 109 93 20 166 20 174 0z"/>
<path d="M6020 4374 c-6 -16 -10 -360 -10 -921 0 -804 -2 -897 -16 -907 -19
-14 -22 -160 -3 -182 10 -12 114 -14 635 -14 l623 0 15 22 c24 35 22 142 -4
168 -20 20 -20 33 -20 921 0 592 -3 907 -10 919 -10 19 -31 19 -605 20 l-595
0 -10 -26z m1141 -171 c13 -16 12 -17 -3 -4 -10 7 -18 15 -18 17 0 8 8 3 21
-13z m-17 -14 c17 -16 21 -82 16 -291 -5 -192 -7 -211 -24 -224 -29 -21 -980
-19 -1013 2 -23 14 -23 16 -23 264 0 227 2 250 18 259 21 12 1012 3 1026 -10z
m-419 -786 c-94 -120 -92 -107 -17 -162 l27 -19 -58 -52 c-31 -29 -57 -56 -57
-59 0 -4 16 -15 36 -24 19 -10 34 -21 32 -26 -3 -9 -256 -231 -263 -231 -3 0
25 42 60 93 95 135 92 122 45 153 -37 25 -51 44 -32 44 12 1 112 97 112 109 0
6 -6 11 -12 11 -16 1 -58 35 -57 47 0 7 258 223 266 223 2 0 -35 -48 -82 -107z"/>
<path d="M5850 3620 c0 -5 5 -10 11 -10 5 0 7 5 4 10 -3 6 -8 10 -11 10 -2 0
-4 -4 -4 -10z"/>
<path d="M5780 3503 c0 -9 16 -13 45 -13 25 0 45 4 45 9 0 5 -20 11 -45 13
-31 2 -45 -1 -45 -9z"/>
<path d="M5838 3373 c7 -3 16 -2 19 1 4 3 -2 6 -13 5 -11 0 -14 -3 -6 -6z"/>
<path d="M1375 1536 c-212 -69 -333 -259 -304 -476 13 -92 57 -175 128 -244
297 -283 776 -36 720 371 -19 140 -112 262 -246 326 -60 28 -80 32 -163 34
-58 2 -111 -3 -135 -11z m291 -56 c84 -41 148 -106 188 -190 29 -60 31 -73 31
-170 0 -96 -3 -110 -29 -165 -38 -77 -120 -159 -193 -192 -75 -35 -203 -43
-284 -20 -116 34 -219 135 -258 254 -69 210 40 430 251 505 40 14 74 18 139
15 74 -3 96 -8 155 -37z"/>
<path d="M4968 1534 c-67 -20 -167 -91 -210 -149 -60 -80 -83 -154 -82 -265 0
-74 5 -108 23 -153 50 -129 173 -233 310 -263 144 -32 286 10 394 118 38 37
69 81 89 125 28 61 32 78 32 163 1 118 -20 188 -79 269 -49 67 -142 134 -218
156 -63 19 -197 18 -259 -1z m244 -29 c146 -44 251 -164 279 -319 32 -170 -59
-342 -221 -420 -60 -29 -73 -31 -170 -31 -93 0 -111 3 -163 27 -154 72 -250
239 -232 404 17 158 147 308 299 345 53 12 159 10 208 -6z"/>
</g>
</svg>
