<?xml version="1.0" standalone="no"?>
<!DOCTYPE svg PUBLIC "-//W3C//DTD SVG 1.0//EN" "http://www.w3.org/TR/2001/REC-SVG-20010904/DTD/svg10.dtd">
<svg xmlns="http://www.w3.org/2000/svg" xmlns:xlink="http://www.w3.org/1999/xlink" id="body_1" width="24" height="24">

<g transform="matrix(0.095238104 0 0 0.095238104 0 0)">
	<g transform="matrix(0.1 0 -0 -0.1 0 252)">
        <path d="M543 2361C 376 2269 208 2084 106 1883C 37 1745 0 1577 0 1400C 0 1178 35 1036 142 829C 326 469 623 242 1025 154C 1289 97 1636 149 1855 278C 2076 409 2263 602 2368 808C 2468 1003 2500 1138 2500 1362C 2500 1610 2436 1814 2282 2050C 2203 2172 2166 2214 2075 2285C 1924 2402 2022 2390 1260 2390L1260 2390L595 2390L543 2361zM1909 2116C 2069 1997 2208 1755 2256 1512C 2298 1296 2245 1037 2117 839C 2068 762 1934 622 1846 556C 1738 475 1658 435 1524 396C 1419 365 1389 360 1297 360C 1024 360 729 478 550 659C 435 775 335 937 284 1088C 256 1170 231 1321 230 1406C 230 1468 254 1612 276 1677C 331 1842 463 2022 599 2119L599 2119L643 2150L1253 2150L1862 2150L1909 2116z" stroke="none" fill="#000000" fill-rule="nonzero" />
        <path d="M885 2035C 828 2015 765 1943 750 1880C 713 1726 851 1584 1002 1621C 1134 1652 1206 1809 1144 1931C 1124 1971 1055 2028 1013 2039C 963 2053 934 2052 885 2035zM1007 1888C 1040 1857 1039 1798 1004 1771C 969 1743 935 1745 905 1775C 833 1846 933 1958 1007 1888z" stroke="none" fill="#000000" fill-rule="nonzero" />
        <path d="M1506 2040C 1406 2010 1338 1900 1356 1795C 1365 1740 1382 1709 1428 1668C 1514 1590 1641 1598 1718 1685C 1799 1778 1797 1892 1711 1980C 1650 2043 1583 2063 1506 2040zM1619 1884C 1647 1848 1646 1805 1615 1775C 1566 1726 1490 1758 1490 1829C 1490 1903 1575 1939 1619 1884z" stroke="none" fill="#000000" fill-rule="nonzero" />
        <path d="M550 1655C 369 1597 311 1360 443 1222C 498 1164 545 1145 635 1145C 704 1145 721 1149 762 1172C 943 1279 943 1535 760 1634C 697 1668 616 1676 550 1655zM687 1458C 726 1422 717 1359 669 1334C 614 1306 556 1343 556 1407C 556 1473 637 1505 687 1458z" stroke="none" fill="#000000" fill-rule="nonzero" />
        <path d="M1185 1661C 1110 1642 1035 1576 1005 1504C 982 1449 986 1349 1012 1293C 1104 1096 1380 1089 1484 1280C 1554 1409 1501 1572 1368 1641C 1326 1663 1230 1673 1185 1661zM1305 1455C 1341 1420 1338 1379 1298 1345C 1275 1325 1260 1320 1241 1325C 1207 1333 1170 1375 1170 1406C 1170 1441 1212 1480 1250 1480C 1269 1480 1290 1471 1305 1455z" stroke="none" fill="#000000" fill-rule="nonzero" />
        <path d="M1795 1661C 1626 1619 1543 1429 1628 1277C 1761 1040 2119 1133 2120 1405C 2120 1575 1960 1701 1795 1661zM1915 1455C 1945 1426 1947 1391 1920 1357C 1872 1296 1781 1327 1780 1404C 1780 1473 1865 1505 1915 1455z" stroke="none" fill="#000000" fill-rule="nonzero" />
        <path d="M860 1131C 667 1072 606 833 748 687C 812 622 934 593 1017 623C 1081 647 1136 696 1165 755C 1203 833 1207 890 1180 964C 1130 1096 988 1170 860 1131zM988 927C 1038 881 1000 800 929 800C 865 800 830 866 866 918C 897 963 944 967 988 927z" stroke="none" fill="#000000" fill-rule="nonzero" />
        <path d="M1500 1131C 1381 1092 1307 994 1307 875C 1307 774 1361 687 1454 637C 1512 607 1628 607 1686 637C 1883 742 1883 1011 1686 1112C 1642 1134 1541 1145 1500 1131zM1628 924C 1656 893 1656 860 1629 826C 1600 789 1540 789 1511 826C 1486 858 1484 888 1506 918C 1539 965 1588 967 1628 924z" stroke="none" fill="#000000" fill-rule="nonzero" />
	</g>
</g>
</svg>