<?xml version="1.0" standalone="no"?>
<!DOCTYPE svg PUBLIC "-//W3C//DTD SVG 1.0//EN" "http://www.w3.org/TR/2001/REC-SVG-20010904/DTD/svg10.dtd">
<svg xmlns="http://www.w3.org/2000/svg" xmlns:xlink="http://www.w3.org/1999/xlink" id="body_1" width="24" height="24">

<g transform="matrix(0.09302326 0 0 0.09302326 0 0)">
	<g transform="matrix(0.1 0 -0 -0.1 0 258)">
        <path d="M593 2401C 426 2309 258 2124 156 1923C 87 1785 50 1617 50 1440C 50 1218 85 1076 192 869C 376 509 673 282 1075 194C 1339 137 1686 189 1905 318C 2126 449 2313 642 2418 848C 2518 1043 2550 1178 2550 1402C 2550 1650 2486 1854 2332 2090C 2253 2212 2216 2254 2125 2325C 2004 2420 1983 2430 1918 2430L1918 2430L1860 2430L1860 2370L1860 2310L1305 2310L750 2310L750 2370L750 2430L698 2430C 659 2430 631 2422 593 2401zM1959 2156C 2119 2037 2258 1795 2306 1552C 2348 1336 2295 1077 2167 879C 2118 802 1984 662 1896 596C 1788 515 1708 475 1574 436C 1469 405 1439 400 1347 400C 1074 400 779 518 600 699C 485 815 385 977 334 1128C 306 1210 281 1361 280 1446C 280 1508 304 1652 326 1717C 381 1882 513 2062 649 2159L649 2159L693 2190L1303 2190L1912 2190L1959 2156z" stroke="none" fill="#ffffff" fill-rule="nonzero" />
        <path d="M860 2069C 772 2033 728 1925 765 1838C 821 1702 1016 1695 1080 1826C 1136 1941 1063 2069 937 2077C 908 2078 874 2075 860 2069zM960 1936C 975 1917 969 1880 948 1867C 922 1850 880 1874 880 1904C 880 1944 935 1965 960 1936z" stroke="none" fill="#ffffff" fill-rule="nonzero" />
        <path d="M1222 2059C 1094 1994 1102 1795 1234 1745C 1295 1722 1359 1729 1406 1765C 1446 1796 1480 1859 1480 1905C 1480 1951 1446 2014 1405 2045C 1355 2084 1282 2090 1222 2059zM1334 1931C 1357 1906 1347 1872 1314 1864C 1284 1856 1260 1875 1260 1904C 1260 1949 1304 1965 1334 1931z" stroke="none" fill="#ffffff" fill-rule="nonzero" />
        <path d="M1595 2057C 1523 2016 1489 1938 1510 1861C 1562 1665 1849 1702 1850 1904C 1850 2038 1710 2122 1595 2057zM1708 1938C 1740 1906 1709 1853 1666 1864C 1635 1872 1626 1897 1645 1926C 1662 1952 1689 1957 1708 1938z" stroke="none" fill="#ffffff" fill-rule="nonzero" />
        <path d="M1210 1678C 1160 1644 1138 1607 1132 1552C 1126 1487 1143 1438 1185 1401C 1275 1322 1408 1348 1459 1453C 1489 1515 1483 1577 1440 1636C 1394 1701 1275 1722 1210 1678zM1338 1558C 1357 1539 1352 1512 1326 1495C 1283 1466 1246 1503 1266 1554C 1273 1573 1321 1575 1338 1558z" stroke="none" fill="#ffffff" fill-rule="nonzero" />
        <path d="M567 1615C 546 1607 507 1585 481 1565C 312 1442 300 1194 455 1051C 526 985 579 965 680 965C 757 965 772 968 832 998C 1092 1126 1074 1508 804 1610C 739 1634 625 1636 567 1615zM799 1466C 848 1432 890 1353 890 1296C 889 1159 734 1050 613 1102C 467 1165 430 1343 542 1447C 607 1508 725 1517 799 1466z" stroke="none" fill="#ffffff" fill-rule="nonzero" />
        <path d="M1785 1610C 1512 1502 1502 1117 1769 991C 1816 969 1839 965 1910 965C 2012 965 2065 986 2138 1054C 2312 1217 2268 1496 2051 1602C 1986 1634 1855 1638 1785 1610zM1993 1484C 2160 1400 2153 1176 1981 1104C 1856 1052 1700 1158 1700 1295C 1700 1364 1756 1451 1823 1484C 1865 1504 1952 1504 1993 1484z" stroke="none" fill="#ffffff" fill-rule="nonzero" />
        <path d="M1230 1031C 1152 1007 1073 932 1052 862C 1003 699 1103 540 1272 515C 1375 499 1498 569 1543 670C 1605 806 1531 977 1391 1025C 1344 1041 1272 1043 1230 1031zM1391 874C 1448 819 1450 741 1394 685C 1335 626 1254 632 1197 699C 1149 757 1166 849 1233 891C 1279 920 1351 913 1391 874z" stroke="none" fill="#ffffff" fill-rule="nonzero" />
        <path d="M764 936C 747 928 719 905 702 884C 601 762 707 581 864 604C 918 612 984 667 1000 716C 1017 766 1008 841 981 879C 936 942 837 968 764 936zM868 808C 889 787 882 751 855 738C 833 728 826 729 808 748C 789 766 788 773 798 795C 811 822 847 829 868 808z" stroke="none" fill="#ffffff" fill-rule="nonzero" />
        <path d="M1694 936C 1677 928 1649 905 1632 884C 1531 762 1637 581 1794 604C 1848 612 1914 667 1930 716C 1947 766 1938 841 1911 879C 1866 942 1767 968 1694 936zM1798 808C 1819 787 1812 751 1785 738C 1763 728 1756 729 1738 748C 1719 766 1718 773 1728 795C 1741 822 1777 829 1798 808z" stroke="none" fill="#ffffff" fill-rule="nonzero" />
	</g>
</g>
</svg>