<svg width="24" height="24" viewBox="0 0 24 24" fill="none" xmlns="http://www.w3.org/2000/svg">
<path d="M11.8452 18.9387C9.17181 18.9387 8.12063 17.7448 7.97787 16.2134H5.1228C5.27853 19.0555 7.40686 20.6518 9.89856 21.1838V24H13.7918V21.2098C16.3225 20.7296 18.334 19.2632 18.334 16.6028C18.334 12.9171 15.1804 11.6583 12.2345 10.8926C9.28861 10.1269 8.34125 9.33531 8.34125 8.10244C8.34125 6.68788 9.65198 5.70158 11.8452 5.70158C14.1552 5.70158 15.0117 6.80468 15.0896 8.42688H17.9576C17.8668 6.19473 16.5042 4.14427 13.7918 3.48241V0.64032H9.89856V3.44348C7.3809 3.98854 5.3564 5.62372 5.3564 8.12839C5.3564 11.1262 7.83512 12.6186 11.4559 13.4881C14.7003 14.2668 15.3491 15.4088 15.3491 16.6157C15.3491 17.5112 14.7132 18.9387 11.8452 18.9387Z" fill="#979797"/>
</svg>
