<svg width="28" height="28" viewBox="0 0 28 28" fill="none" xmlns="http://www.w3.org/2000/svg">
<path d="M22.903 4.55535C22.3499 4.00222 21.4563 4.00222 20.9032 4.55535L13.9677 11.4767L7.03221 4.54117C6.47907 3.98803 5.58554 3.98803 5.03241 4.54117C4.47927 5.09431 4.47927 5.98784 5.03241 6.54098L11.9679 13.4765L5.03241 20.412C4.47927 20.9651 4.47927 21.8586 5.03241 22.4118C5.58554 22.9649 6.47907 22.9649 7.03221 22.4118L13.9677 15.4763L20.9032 22.4118C21.4563 22.9649 22.3499 22.9649 22.903 22.4118C23.4561 21.8586 23.4561 20.9651 22.903 20.412L15.9675 13.4765L22.903 6.54098C23.4419 6.00202 23.4419 5.09431 22.903 4.55535Z" fill="#FFC107"/>
</svg>
