<svg width="24" height="24" viewBox="0 0 24 24" fill="none" xmlns="http://www.w3.org/2000/svg">
<path d="M11.99 1.99999C6.47 1.99999 2 6.47999 2 12C2 17.52 6.47 22 11.99 22C17.52 22 22 17.52 22 12C22 6.47999 17.52 1.99999 11.99 1.99999ZM12 20C7.58 20 4 16.42 4 12C4 7.57999 7.58 3.99999 12 3.99999C16.42 3.99999 20 7.57999 20 12C20 16.42 16.42 20 12 20ZM11.78 6.99999H11.72C11.32 6.99999 11 7.31999 11 7.71999V12.44C11 12.79 11.18 13.12 11.49 13.3L15.64 15.79C15.98 15.99 16.42 15.89 16.62 15.55C16.83 15.21 16.72 14.76 16.37 14.56L12.5 12.26V7.71999C12.5 7.31999 12.18 6.99999 11.78 6.99999Z" fill="#979797"/>
</svg>
