<svg width="48" height="39" viewBox="0 0 48 39" fill="none" xmlns="http://www.w3.org/2000/svg">
<path d="M24.0763 37.28L23.6562 37.9014L23.2442 37.2746L12.6614 21.1737C6.82907 12.3002 13.194 0.5 23.8125 0.5C34.5097 0.5 40.8587 12.456 34.8675 21.318L24.0763 37.28Z" fill="#404040" stroke="#FFC107"/>
<ellipse cx="24" cy="13.1935" rx="9.36585" ry="9.29032" fill="white"/>
<path d="M20 13V20H24.2H28.4V13V6H24.2H20V13ZM27.8537 8.15122V9.68781H24.2341H20.6146V8.15122V6.61464H24.2341H27.8537V8.15122ZM27.1502 11.2995C27.1298 11.32 27.0683 11.3268 27.0205 11.3063C26.9659 11.2859 26.9863 11.2654 27.0615 11.2654C27.1366 11.2585 27.1776 11.279 27.1502 11.2995ZM26.6244 11.7298C26.6244 11.8117 26.5493 11.8732 26.4059 11.9141C26.2556 11.9551 26.1737 12.0302 26.16 12.119C26.1463 12.2078 26.0371 12.3034 25.839 12.3854C25.6273 12.4673 25.5317 12.5493 25.5317 12.638C25.5317 12.7063 25.5044 12.761 25.4634 12.761C25.4293 12.761 25.3268 12.8361 25.2312 12.9317C25.1356 13.0273 25.0332 13.1024 24.9922 13.1024C24.958 13.1024 24.9034 13.1639 24.8829 13.239C24.8624 13.3141 24.7873 13.3756 24.7259 13.3824C24.6439 13.3824 24.6507 13.4029 24.7668 13.4439C24.8488 13.478 24.9171 13.5395 24.9171 13.5805C24.9171 13.6146 24.9922 13.6488 25.0878 13.6488C25.1834 13.6488 25.2585 13.6761 25.2585 13.7034C25.2585 13.7785 25.5727 13.922 25.7298 13.922C25.88 13.922 25.962 14.0927 25.9073 14.2702C25.88 14.3522 25.798 14.4 25.7024 14.4C25.6137 14.4 25.4976 14.4478 25.4361 14.5024C25.3815 14.5571 25.2859 14.6049 25.2312 14.6049C25.1698 14.6049 25.122 14.6459 25.122 14.6937C25.122 14.7415 24.9922 14.8302 24.842 14.8985C24.398 15.0898 24.2068 15.3561 24.5073 15.3561C24.5824 15.3561 24.6439 15.3834 24.6439 15.4176C24.6439 15.4517 24.76 15.4995 24.9034 15.52C25.32 15.5951 25.3951 15.6361 25.3951 15.7659C25.3951 15.8956 25.2654 15.9707 25.0468 15.9707C24.9717 15.9707 24.8966 16.0185 24.8761 16.0732C24.8488 16.1278 24.7941 16.1756 24.7395 16.1756C24.6849 16.1756 24.6439 16.2029 24.6439 16.2371C24.6439 16.2712 24.5893 16.319 24.5141 16.3463C24.4459 16.3668 24.3161 16.442 24.2341 16.5171C24.1454 16.5922 24.0088 16.6537 23.92 16.6537C23.8312 16.6537 23.7493 16.7083 23.7288 16.7698C23.7083 16.838 23.5512 16.9473 23.3805 17.0156C23.2098 17.0907 23.0732 17.1863 23.0732 17.241C23.0732 17.2956 22.9434 17.3639 22.759 17.4117C22.5883 17.4595 22.4312 17.5346 22.4107 17.5824C22.3902 17.6371 22.3356 17.678 22.281 17.678C22.2263 17.678 22.1854 17.7054 22.1854 17.7463C22.1854 17.7805 22.1376 17.8146 22.0829 17.8146C22.0351 17.8146 21.96 17.8556 21.9327 17.9102C21.9054 17.958 21.7688 18.0195 21.639 18.0468C21.5093 18.0673 21.4478 18.0673 21.5024 18.04C21.5571 18.0195 21.6322 17.958 21.6595 17.9102C21.6868 17.8556 21.7551 17.8146 21.8029 17.8146C21.8576 17.8146 21.9122 17.7259 21.9327 17.6166C21.9668 17.4663 22.0215 17.4049 22.1785 17.3707C22.3083 17.3434 22.3902 17.2751 22.4176 17.1727C22.438 17.0839 22.52 16.9951 22.5951 16.9746C22.6771 16.9541 22.7317 16.879 22.7317 16.8039C22.7317 16.7151 22.7932 16.6537 22.9024 16.6263C22.998 16.599 23.0732 16.5376 23.0732 16.4829C23.0732 16.4283 23.1005 16.3805 23.1278 16.3805C23.2234 16.3805 23.4829 16.1346 23.4829 16.0459C23.4829 16.0049 23.5376 15.9707 23.6059 15.9639C23.6946 15.9639 23.7015 15.9502 23.6195 15.9229C23.5649 15.8956 23.4693 15.8273 23.4146 15.7659C23.36 15.7044 23.1688 15.6088 22.9912 15.561C22.8068 15.5063 22.6634 15.438 22.6634 15.4107C22.6634 15.3834 22.6156 15.3561 22.561 15.3561C22.5063 15.3561 22.4585 15.3083 22.4585 15.2537C22.4585 15.199 22.52 15.1512 22.5951 15.1512C22.6702 15.1512 22.7317 15.1307 22.7317 15.0966C22.7317 15.0693 22.8683 14.9941 23.039 14.9259C23.2098 14.8507 23.3463 14.7551 23.3463 14.7005C23.3463 14.6459 23.4146 14.6049 23.5102 14.6049C23.599 14.6049 23.6878 14.5571 23.7151 14.5024C23.7356 14.4478 23.8176 14.4 23.8927 14.4C24.0771 14.4 24.2341 14.2429 24.2341 14.0654C24.2341 13.9561 24.1932 13.922 24.0429 13.922C23.838 13.922 23.4829 13.7854 23.4829 13.6966C23.4829 13.6693 23.4215 13.6488 23.3463 13.6488C23.2712 13.6488 23.2098 13.6215 23.2098 13.5941C23.2098 13.5532 26.522 11.6137 26.6107 11.6C26.6176 11.6 26.6244 11.6546 26.6244 11.7298Z" fill="black"/>
</svg>
