<?xml version="1.0" standalone="no"?>
<!DOCTYPE svg PUBLIC "-//W3C//DTD SVG 20010904//EN"
 "http://www.w3.org/TR/2001/REC-SVG-20010904/DTD/svg10.dtd">
<svg version="1.0" xmlns="http://www.w3.org/2000/svg"
 width="217.000000pt" height="217.000000pt" viewBox="0 0 217.000000 217.000000"
 preserveAspectRatio="xMidYMid meet">

<g transform="translate(0.000000,217.000000) scale(0.100000,-0.100000)"
fill="#ffc107" stroke="none">
<path d="M460 1095 l0 -1025 615 0 615 0 0 1025 0 1025 -615 0 -615 0 0 -1025z
m1150 710 l0 -225 -530 0 -530 0 0 225 0 225 530 0 530 0 0 -225z m-103 -461
c-3 -3 -12 -4 -19 -1 -8 3 -5 6 6 6 11 1 17 -2 13 -5z m-77 -63 c0 -12 -11
-21 -32 -27 -22 -6 -34 -17 -36 -30 -2 -13 -18 -27 -47 -39 -31 -12 -45 -24
-45 -37 0 -10 -4 -18 -10 -18 -5 0 -20 -11 -34 -25 -14 -14 -29 -25 -35 -25
-5 0 -13 -9 -16 -20 -3 -11 -14 -20 -23 -21 -12 0 -11 -3 6 -9 12 -5 22 -14
22 -20 0 -5 11 -10 25 -10 14 0 25 -4 25 -8 0 -11 46 -32 69 -32 22 0 34 -25
26 -51 -4 -12 -16 -19 -30 -19 -13 0 -30 -7 -39 -15 -8 -8 -22 -15 -30 -15 -9
0 -16 -6 -16 -13 0 -7 -19 -20 -41 -30 -65 -28 -93 -67 -49 -67 11 0 20 -4 20
-9 0 -5 17 -12 38 -15 61 -11 72 -17 72 -36 0 -19 -19 -30 -51 -30 -11 0 -22
-7 -25 -15 -4 -8 -12 -15 -20 -15 -8 0 -14 -4 -14 -9 0 -5 -8 -12 -19 -16 -10
-3 -29 -14 -41 -25 -13 -11 -33 -20 -46 -20 -13 0 -25 -8 -28 -17 -3 -10 -26
-26 -51 -36 -25 -11 -45 -25 -45 -33 0 -8 -19 -18 -46 -25 -25 -7 -48 -18 -51
-25 -3 -8 -11 -14 -19 -14 -8 0 -14 -4 -14 -10 0 -5 -7 -10 -15 -10 -7 0 -18
-6 -22 -14 -4 -7 -24 -16 -43 -20 -19 -3 -28 -3 -20 1 8 3 19 12 23 19 4 8 14
14 21 14 8 0 16 13 19 29 5 22 13 31 36 36 19 4 31 14 35 29 3 13 15 26 26 29
12 3 20 14 20 25 0 13 9 22 25 26 14 4 25 13 25 21 0 8 4 15 8 15 14 0 52 36
52 49 0 6 8 11 18 12 13 0 14 2 2 6 -8 4 -22 14 -30 23 -8 9 -36 23 -62 30
-27 8 -48 18 -48 22 0 4 -7 8 -15 8 -8 0 -15 7 -15 15 0 8 9 15 20 15 11 0 20
3 20 8 0 4 20 15 45 25 25 11 45 25 45 33 0 8 10 14 24 14 13 0 26 7 30 15 3
8 15 15 26 15 27 0 50 23 50 49 0 16 -6 21 -28 21 -30 0 -82 20 -82 33 0 4 -9
7 -20 7 -11 0 -20 4 -20 8 0 6 485 290 498 292 1 0 2 -8 2 -19z"/>
</g>
</svg>
