<svg width="32" height="27" viewBox="0 0 32 27" fill="none" xmlns="http://www.w3.org/2000/svg">
<rect width="32" height="27" fill="#F5F5F5"/>
<path d="M16.1889 25.28L15.7689 25.9014L15.3569 25.2746L8.30166 14.5406C4.34059 8.51419 8.66337 0.5 15.875 0.5C23.1401 0.5 27.452 8.62001 23.3831 14.6387L16.1889 25.28Z" fill="#404040" stroke="#FFC107"/>
<ellipse cx="16" cy="9.12903" rx="6.2439" ry="6.19355" fill="white"/>
<path d="M13.1198 8.95392V13.6774H15.9539H18.788V8.95392V4.23041H15.9539H13.1198V8.95392ZM18.4194 5.68203V6.71889H15.977H13.5346V5.68203V4.64516H15.977H18.4194V5.68203ZM17.9447 7.80645C17.9309 7.82028 17.8894 7.82488 17.8571 7.81106C17.8203 7.79723 17.8341 7.78341 17.8848 7.78341C17.9355 7.7788 17.9631 7.79263 17.9447 7.80645ZM17.5899 8.09677C17.5899 8.15207 17.5392 8.19355 17.4424 8.2212C17.341 8.24885 17.2857 8.29954 17.2765 8.35945C17.2673 8.41935 17.1935 8.48387 17.0599 8.53917C16.917 8.59447 16.8525 8.64977 16.8525 8.70968C16.8525 8.75576 16.8341 8.79263 16.8064 8.79263C16.7834 8.79263 16.7143 8.84332 16.6498 8.90783C16.5852 8.97235 16.5161 9.02304 16.4885 9.02304C16.4654 9.02304 16.4286 9.06452 16.4147 9.11521C16.4009 9.1659 16.3502 9.20737 16.3088 9.21198C16.2535 9.21198 16.2581 9.22581 16.3364 9.25346C16.3917 9.2765 16.4378 9.31797 16.4378 9.34562C16.4378 9.36866 16.4885 9.3917 16.553 9.3917C16.6175 9.3917 16.6682 9.41014 16.6682 9.42857C16.6682 9.47926 16.8802 9.57604 16.9862 9.57604C17.0876 9.57604 17.1429 9.69124 17.106 9.81106C17.0876 9.86636 17.0323 9.89862 16.9677 9.89862C16.9078 9.89862 16.8295 9.93087 16.788 9.96774C16.7511 10.0046 16.6866 10.0369 16.6498 10.0369C16.6083 10.0369 16.576 10.0645 16.576 10.0968C16.576 10.129 16.4885 10.1889 16.3871 10.235C16.0876 10.3641 15.9585 10.5438 16.1613 10.5438C16.212 10.5438 16.2535 10.5622 16.2535 10.5853C16.2535 10.6083 16.3318 10.6406 16.4286 10.6544C16.7097 10.7051 16.7604 10.7327 16.7604 10.8203C16.7604 10.9078 16.6728 10.9585 16.5253 10.9585C16.4747 10.9585 16.424 10.9908 16.4101 11.0276C16.3917 11.0645 16.3548 11.0968 16.318 11.0968C16.2811 11.0968 16.2535 11.1152 16.2535 11.1382C16.2535 11.1613 16.2166 11.1935 16.1659 11.212C16.1198 11.2258 16.0323 11.2765 15.977 11.3272C15.917 11.3779 15.8249 11.4194 15.765 11.4194C15.7051 11.4194 15.6498 11.4562 15.6359 11.4977C15.6221 11.5438 15.5161 11.6175 15.4009 11.6636C15.2857 11.7143 15.1935 11.7788 15.1935 11.8157C15.1935 11.8525 15.106 11.8986 14.9816 11.9309C14.8664 11.9631 14.7604 12.0138 14.7465 12.0461C14.7327 12.0829 14.6958 12.1106 14.659 12.1106C14.6221 12.1106 14.5945 12.129 14.5945 12.1567C14.5945 12.1797 14.5622 12.2028 14.5253 12.2028C14.4931 12.2028 14.4424 12.2304 14.424 12.2673C14.4055 12.2995 14.3134 12.341 14.2258 12.3594C14.1382 12.3733 14.0968 12.3733 14.1336 12.3548C14.1705 12.341 14.2212 12.2995 14.2396 12.2673C14.2581 12.2304 14.3041 12.2028 14.3364 12.2028C14.3733 12.2028 14.4101 12.1429 14.424 12.0691C14.447 11.9677 14.4839 11.9263 14.5899 11.9032C14.6774 11.8848 14.7327 11.8387 14.7511 11.7696C14.765 11.7097 14.8203 11.6498 14.871 11.6359C14.9263 11.6221 14.9631 11.5714 14.9631 11.5207C14.9631 11.4608 15.0046 11.4194 15.0783 11.4009C15.1429 11.3825 15.1935 11.341 15.1935 11.3041C15.1935 11.2673 15.212 11.235 15.2304 11.235C15.2949 11.235 15.47 11.0691 15.47 11.0092C15.47 10.9816 15.5069 10.9585 15.553 10.9539C15.6129 10.9539 15.6175 10.9447 15.5622 10.9263C15.5253 10.9078 15.4608 10.8618 15.424 10.8203C15.3871 10.7788 15.2581 10.7143 15.1382 10.682C15.0138 10.6452 14.917 10.5991 14.917 10.5806C14.917 10.5622 14.8848 10.5438 14.8479 10.5438C14.8111 10.5438 14.7788 10.5115 14.7788 10.4747C14.7788 10.4378 14.8203 10.4055 14.871 10.4055C14.9217 10.4055 14.9631 10.3917 14.9631 10.3687C14.9631 10.3502 15.0553 10.2995 15.1705 10.2535C15.2857 10.2028 15.3779 10.1382 15.3779 10.1014C15.3779 10.0645 15.424 10.0369 15.4885 10.0369C15.5484 10.0369 15.6083 10.0046 15.6267 9.96774C15.6405 9.93087 15.6958 9.89862 15.7465 9.89862C15.871 9.89862 15.977 9.79263 15.977 9.67281C15.977 9.59908 15.9493 9.57604 15.8479 9.57604C15.7097 9.57604 15.47 9.48387 15.47 9.42396C15.47 9.40553 15.4286 9.3917 15.3779 9.3917C15.3272 9.3917 15.2857 9.37327 15.2857 9.35484C15.2857 9.32719 17.5207 8.01843 17.5806 8.00922C17.5852 8.00922 17.5899 8.04608 17.5899 8.09677Z" fill="black"/>
</svg>
