<?xml version="1.0" standalone="no"?>
<!DOCTYPE svg PUBLIC "-//W3C//DTD SVG 1.0//EN" "http://www.w3.org/TR/2001/REC-SVG-20010904/DTD/svg10.dtd">
<svg xmlns="http://www.w3.org/2000/svg" xmlns:xlink="http://www.w3.org/1999/xlink" id="body_1" width="24" height="24">

<g transform="matrix(0.09266409 0 0 0.09266409 0 0)">
	<g transform="matrix(0.1 0 -0 -0.1 0 259)">
        <path d="M1050 2360C 753 2344 480 2281 335 2195C 173 2100 83 1929 49 1650C 7 1298 174 832 432 584C 659 367 924 270 1294 270C 1400 270 1585 292 1672 315C 2045 412 2328 684 2463 1075C 2521 1243 2534 1332 2535 1535C 2535 1855 2481 2011 2328 2137C 2213 2231 2076 2282 1823 2325C 1589 2365 1349 2376 1050 2360zM1637 2245C 1677 2219 1663 2154 1605 2100C 1569 2066 1516 1977 1494 1910C 1467 1830 1469 1667 1499 1586C 1592 1328 1861 1196 2111 1285C 2263 1339 2259 1338 2287 1305C 2310 1278 2312 1270 2308 1201C 2304 1144 2295 1106 2271 1052C 2227 952 2173 861 2133 821C 2092 780 2071 783 1985 844C 1890 912 1785 960 1665 990C 1272 1090 890 1031 579 823C 518 783 510 780 486 791C 424 819 270 1130 270 1226C 270 1325 314 1344 434 1296C 681 1197 941 1296 1056 1533C 1145 1719 1114 1943 977 2096C 907 2174 894 2214 927 2241C 950 2261 1105 2269 1379 2264C 1568 2261 1618 2257 1637 2245zM723 2090C 809 2063 878 2002 922 1912C 952 1852 955 1837 955 1755C 955 1677 951 1657 926 1603C 893 1530 822 1459 752 1427C 681 1395 564 1397 489 1432C 269 1533 218 1837 390 2008C 485 2102 595 2129 723 2090zM2096 2075C 2158 2044 2234 1966 2263 1902C 2295 1830 2298 1702 2270 1628C 2242 1552 2166 1469 2092 1433C 2044 1410 2022 1405 1955 1405C 1888 1405 1866 1410 1818 1433C 1744 1469 1668 1552 1640 1628C 1609 1709 1615 1831 1653 1911C 1697 2002 1785 2074 1885 2101C 1937 2115 2040 2102 2096 2075zM1360 888C 1444 845 1469 745 1415 674C 1352 591 1245 589 1177 669C 1098 763 1168 904 1295 909C 1307 910 1336 900 1360 888zM827 790C 857 763 863 735 848 703C 821 647 754 636 710 680C 642 748 757 856 827 790zM1885 785C 1958 713 1857 607 1776 671C 1756 687 1750 700 1750 730C 1750 802 1834 836 1885 785z" stroke="none" fill="#ffffff" fill-rule="nonzero" />
	</g>
</g>
</svg>