<?xml version="1.0" standalone="no"?>
<!DOCTYPE svg PUBLIC "-//W3C//DTD SVG 1.0//EN" "http://www.w3.org/TR/2001/REC-SVG-20010904/DTD/svg10.dtd">
<svg xmlns="http://www.w3.org/2000/svg"
    id="body_1"
    width="24"
    height="24">

<g transform="matrix(0.07570978 0 0 0.07570978 0 0)">
	<g transform="matrix(0.1 0 -0 -0.1 0 317)">
        <path d="M1225 3066C 1208 3059 1189 3046 1183 3038C 1176 3030 1155 2961 1137 2885L1137 2885L1103 2746L1014 2700C 820 2600 635 2442 535 2290C 508 2249 483 2213 478 2210C 465 2200 392 2037 366 1957C 287 1714 285 1475 361 1248C 383 1180 476 979 489 970C 493 967 521 929 550 885C 653 731 799 613 1043 485L1043 485L1138 435L1142 350C 1150 186 1165 180 1528 181C 1846 182 1891 186 1928 223C 1953 248 1955 258 1958 344L1958 344L1962 437L2033 471C 2279 589 2435 712 2570 895C 2793 1195 2854 1559 2745 1934C 2688 2129 2590 2292 2436 2446C 2321 2561 2221 2632 2071 2706L2071 2706L1967 2758L1934 2891C 1896 3043 1877 3070 1808 3070C 1774 3070 1771 3068 1768 3038L1768 3038L1765 3005L1538 3002L1310 3000L1310 3040C 1310 3077 1308 3080 1283 3080C 1267 3079 1241 3073 1225 3066zM1766 2919C 1763 2902 1760 2871 1760 2850L1760 2850L1760 2813L1708 2822C 1654 2832 1387 2827 1338 2814L1338 2814L1310 2808L1310 2879L1310 2950L1541 2950L1773 2950L1766 2919zM1790 2627C 2014 2564 2229 2434 2356 2285C 2380 2258 2410 2222 2425 2205C 2439 2189 2470 2137 2494 2090C 2633 1820 2659 1559 2573 1295C 2479 1005 2298 801 1997 647C 1948 622 1882 594 1849 583L1849 583L1790 565L1790 489C 1790 374 1793 376 1553 371C 1362 368 1358 368 1334 391C 1313 411 1310 422 1310 485L1310 485L1310 557L1263 575C 1191 601 1015 695 925 755C 851 804 774 877 692 975C 645 1032 534 1261 511 1350C 465 1520 467 1667 515 1849C 563 2027 640 2164 769 2302C 936 2480 1154 2602 1378 2645C 1491 2666 1681 2658 1790 2627z" stroke="none" fill="#000000" fill-rule="nonzero" />
        <path d="M1456 2418C 1250 2398 1010 2266 888 2105C 683 1835 665 1453 845 1165C 888 1096 994 970 1009 970C 1014 970 1050 948 1091 921C 1302 780 1560 744 1800 822C 1971 877 2135 995 2227 1130C 2326 1276 2371 1423 2371 1607C 2371 1866 2254 2105 2056 2249C 1866 2387 1678 2440 1456 2418zM1273 2196C 1368 2162 1434 2089 1456 1994C 1484 1872 1431 1757 1318 1694C 1271 1668 1256 1665 1180 1665C 1082 1665 1039 1683 979 1747C 919 1810 905 1845 905 1935C 905 1998 910 2024 927 2056C 955 2109 1030 2175 1083 2194C 1136 2212 1224 2213 1273 2196zM2045 2176C 2150 2128 2220 2007 2207 1897C 2199 1832 2153 1753 2101 1713C 1914 1569 1646 1697 1646 1930C 1646 2023 1685 2093 1772 2159C 1833 2205 1966 2213 2045 2176zM2121 1538C 2236 1499 2294 1366 2241 1261C 2141 1066 1860 1131 1860 1349C 1860 1486 1992 1582 2121 1538zM1121 1517C 1237 1455 1263 1312 1177 1213C 1137 1168 1095 1150 1030 1150C 917 1150 839 1230 839 1345C 839 1404 855 1442 897 1482C 960 1542 1047 1556 1121 1517zM1621 1364C 1755 1324 1840 1204 1827 1074C 1820 1010 1801 971 1748 918C 1690 860 1630 836 1545 836C 1457 836 1394 866 1328 939C 1291 979 1279 1002 1270 1047C 1240 1189 1338 1334 1487 1369C 1543 1382 1561 1382 1621 1364z" stroke="none" fill="#000000" fill-rule="nonzero" />
        <path d="M1165 2022C 1128 2015 1100 1979 1100 1940C 1100 1862 1196 1825 1246 1884C 1301 1948 1248 2038 1165 2022z" stroke="none" fill="#000000" fill-rule="nonzero" />
        <path d="M1866 1999C 1847 1984 1840 1969 1840 1945C 1840 1898 1848 1881 1881 1865C 1923 1843 1948 1847 1981 1879C 2060 1958 1954 2069 1866 1999z" stroke="none" fill="#000000" fill-rule="nonzero" />
        <path d="M2027 1382C 2005 1358 2006 1327 2028 1307C 2063 1275 2110 1297 2110 1345C 2110 1394 2058 1416 2027 1382z" stroke="none" fill="#000000" fill-rule="nonzero" />
        <path d="M997 1372C 987 1362 980 1344 980 1332C 980 1311 1014 1280 1037 1280C 1055 1280 1090 1317 1090 1335C 1090 1356 1054 1390 1032 1390C 1021 1390 1006 1382 997 1372z" stroke="none" fill="#000000" fill-rule="nonzero" />
        <path d="M1486 1159C 1452 1119 1453 1085 1489 1049C 1537 1001 1600 1013 1626 1075C 1663 1164 1548 1233 1486 1159z" stroke="none" fill="#000000" fill-rule="nonzero" />
	</g>
</g>
</svg>