<?xml version="1.0" standalone="no"?>
<!DOCTYPE svg PUBLIC "-//W3C//DTD SVG 1.0//EN" "http://www.w3.org/TR/2001/REC-SVG-20010904/DTD/svg10.dtd">
<svg xmlns="http://www.w3.org/2000/svg" xmlns:xlink="http://www.w3.org/1999/xlink" id="body_1" width="24" height="24">

<g transform="matrix(0.060150377 0 0 0.060150377 0 0)">
	<g transform="matrix(0.1 0 -0 -0.1 0 399)">
        <path d="M1585 3926C 1569 3919 1549 3902 1542 3889C 1531 3866 1489 3706 1475 3630C 1469 3598 1462 3591 1392 3558C 1030 3384 768 3046 685 2645C 667 2558 665 2308 681 2228C 714 2062 811 1846 917 1699C 1031 1542 1153 1443 1381 1321L1381 1321L1498 1260L1505 1205C 1508 1175 1509 1146 1505 1140C 1502 1135 1462 1130 1417 1130C 1259 1130 1137 1079 1024 966C 920 862 861 722 860 579C 860 508 892 383 927 317C 968 239 1093 119 1172 81C 1301 20 1312 19 1943 22L1943 22L2515 25L2589 52C 2760 114 2886 243 2941 412C 2974 513 2974 656 2941 750C 2888 901 2784 1016 2641 1083C 2562 1120 2549 1123 2443 1128L2443 1128L2330 1133L2330 1194L2330 1255L2443 1314C 2504 1347 2593 1398 2640 1429C 3019 1677 3231 2162 3155 2606C 3085 3014 2856 3332 2490 3532C 2454 3552 2404 3575 2379 3584L2379 3584L2334 3601L2311 3701C 2265 3907 2255 3923 2170 3931C 2136 3935 2135 3934 2132 3898L2132 3898L2129 3860L1899 3860L1670 3860L1670 3900C 1670 3937 1668 3940 1643 3940C 1627 3939 1602 3933 1585 3926zM2130 3739C 2130 3695 2126 3661 2121 3664C 2117 3667 2068 3674 2014 3679C 1922 3687 1795 3682 1708 3665L1708 3665L1670 3658L1670 3734L1670 3810L1883 3813C 1999 3814 2103 3816 2113 3818C 2128 3820 2130 3810 2130 3739zM2071 3495C 2603 3400 2991 2954 2991 2436C 2991 2090 2808 1745 2525 1561C 2438 1504 2267 1418 2203 1400L2203 1400L2162 1387L2155 1309C 2151 1266 2143 1224 2137 1216C 2127 1204 2085 1200 1925 1194C 1730 1188 1724 1188 1703 1209C 1687 1224 1680 1243 1679 1268C 1679 1288 1676 1322 1672 1343C 1665 1379 1661 1382 1589 1414C 1430 1483 1263 1583 1173 1664C 1068 1759 948 1958 883 2145L883 2145L845 2255L846 2425C 846 2581 848 2602 874 2685C 912 2809 968 2935 1026 3022C 1083 3109 1232 3259 1315 3315C 1556 3475 1824 3539 2071 3495zM2580 944C 2751 863 2844 682 2806 501C 2770 331 2641 208 2470 180C 2384 167 1446 167 1360 180C 1186 208 1059 330 1024 504C 1010 572 1010 587 1023 655C 1049 779 1124 882 1229 935C 1317 980 1306 979 1925 977L1925 977L2515 975L2580 944z" stroke="none" fill="#000000" fill-rule="nonzero" />
        <path d="M1812 3269C 1646 3250 1476 3169 1343 3046C 1185 2900 1097 2708 1084 2480C 1053 1970 1499 1550 2006 1610C 2122 1624 2200 1648 2304 1703C 2515 1815 2676 2029 2724 2262C 2744 2360 2744 2519 2725 2615C 2675 2855 2506 3076 2285 3187C 2192 3234 1978 3285 1900 3279C 1892 3278 1852 3274 1812 3269zM1646 3033C 1746 2999 1830 2882 1830 2775C 1830 2662 1742 2546 1633 2514C 1482 2470 1317 2553 1275 2694C 1256 2757 1256 2793 1276 2860C 1295 2926 1376 3010 1442 3033C 1500 3054 1586 3054 1646 3033zM2418 3014C 2485 2981 2546 2911 2565 2847C 2584 2783 2584 2757 2564 2689C 2541 2612 2455 2528 2374 2504C 2199 2453 2025 2571 2012 2751C 2008 2814 2010 2826 2039 2884C 2089 2987 2176 3039 2296 3040C 2352 3040 2377 3035 2418 3014zM2521 2353C 2566 2330 2580 2316 2603 2270C 2628 2223 2631 2207 2626 2161C 2621 2101 2587 2043 2537 2006C 2497 1976 2379 1971 2330 1998C 2286 2021 2234 2097 2225 2150C 2211 2235 2272 2335 2356 2365C 2415 2386 2461 2383 2521 2353zM1492 2346C 1614 2288 1623 2089 1508 2012C 1451 1975 1367 1970 1305 2000C 1215 2043 1173 2169 1219 2258C 1243 2303 1285 2344 1325 2359C 1366 2373 1447 2367 1492 2346zM2038 2176C 2171 2108 2228 1956 2170 1823C 2077 1608 1766 1601 1661 1811C 1584 1965 1655 2132 1823 2192C 1889 2216 1972 2209 2038 2176z" stroke="none" fill="#000000" fill-rule="nonzero" />
        <path d="M1485 2835C 1432 2783 1470 2700 1547 2700C 1591 2701 1615 2716 1629 2753C 1641 2784 1629 2826 1602 2846C 1573 2869 1512 2863 1485 2835z" stroke="none" fill="#000000" fill-rule="nonzero" />
        <path d="M2243 2848C 2231 2842 2216 2824 2209 2808C 2192 2766 2207 2729 2253 2705L2253 2705L2290 2685L2327 2705C 2433 2762 2352 2901 2243 2848z" stroke="none" fill="#000000" fill-rule="nonzero" />
        <path d="M2398 2219C 2364 2200 2385 2120 2423 2120C 2447 2120 2480 2152 2480 2175C 2480 2219 2437 2242 2398 2219z" stroke="none" fill="#000000" fill-rule="nonzero" />
        <path d="M1362 2208C 1338 2178 1344 2132 1375 2118C 1407 2104 1450 2130 1450 2164C 1450 2207 1388 2238 1362 2208z" stroke="none" fill="#000000" fill-rule="nonzero" />
        <path d="M1855 1995C 1829 1969 1822 1923 1840 1890C 1855 1863 1909 1847 1947 1860C 2033 1890 2007 2020 1915 2020C 1890 2020 1871 2012 1855 1995z" stroke="none" fill="#000000" fill-rule="nonzero" />
        <path d="M1383 886C 1208 829 1116 637 1182 463C 1213 379 1297 297 1375 274C 1451 252 1569 259 1627 288C 1686 318 1765 410 1785 471C 1809 541 1802 659 1771 718C 1737 784 1676 845 1617 870C 1553 898 1443 906 1383 886zM1579 760C 1689 704 1722 557 1647 457C 1600 395 1540 367 1466 373C 1357 383 1277 467 1277 575C 1277 737 1435 834 1579 760z" stroke="none" fill="#000000" fill-rule="nonzero" />
        <path d="M1423 645C 1384 618 1389 532 1430 510C 1451 499 1500 497 1525 506C 1571 524 1579 615 1537 645C 1510 664 1451 664 1423 645z" stroke="none" fill="#000000" fill-rule="nonzero" />
        <path d="M2238 884C 2179 865 2089 785 2061 727C 1983 566 2040 378 2192 294C 2241 267 2253 265 2345 265C 2434 265 2450 268 2496 292C 2555 323 2609 381 2641 449C 2673 515 2674 636 2642 704C 2585 829 2494 891 2361 896C 2313 898 2267 893 2238 884zM2403 779C 2451 766 2505 718 2532 667C 2562 607 2554 515 2515 459C 2444 358 2305 342 2213 423C 2092 529 2131 728 2281 775C 2336 792 2355 793 2403 779z" stroke="none" fill="#000000" fill-rule="nonzero" />
        <path d="M2281 634C 2235 575 2273 500 2348 500C 2422 500 2460 588 2407 638C 2372 671 2308 668 2281 634z" stroke="none" fill="#000000" fill-rule="nonzero" />
	</g>
</g>
</svg>