<?xml version="1.0" standalone="no"?>
<!DOCTYPE svg PUBLIC "-//W3C//DTD SVG 1.0//EN" "http://www.w3.org/TR/2001/REC-SVG-20010904/DTD/svg10.dtd">
<svg xmlns="http://www.w3.org/2000/svg" xmlns:xlink="http://www.w3.org/1999/xlink" id="body_1" width="24" height="24">

<g transform="matrix(0.0923077 0 0 0.0923077 0 0)">
	<g transform="matrix(0.1 0 -0 -0.1 0 260)">
        <path d="M555 2394C 444 2329 293 2176 215 2050C 144 1934 106 1848 73 1721C 51 1638 47 1603 46 1465C 45 1224 80 1081 189 873C 359 552 587 361 936 247C 1187 165 1392 159 1619 225C 1839 288 1990 380 2170 560C 2290 679 2349 764 2419 912C 2479 1038 2506 1133 2521 1270C 2551 1540 2494 1793 2347 2042C 2251 2205 2165 2299 2021 2398L2021 2398L1968 2435L1301 2438L635 2440L555 2394zM1947 2162C 2089 2049 2226 1817 2275 1605C 2299 1504 2299 1319 2275 1205C 2240 1036 2142 862 2004 724C 1864 584 1733 502 1574 455C 1379 398 1218 402 1015 467C 822 529 697 604 579 727C 458 854 355 1030 309 1190C 278 1299 271 1532 295 1644C 339 1843 490 2071 645 2174L645 2174L685 2200L1291 2200L1898 2200L1947 2162z" stroke="none" fill="#000000" fill-rule="nonzero" />
        <path d="M770 2078C 640 2002 494 1814 445 1657C 412 1555 413 1548 453 1606C 498 1671 588 1720 665 1720C 768 1720 850 1674 899 1588C 962 1478 946 1365 857 1276C 798 1217 753 1200 664 1200C 560 1201 479 1252 433 1345L433 1345L408 1395L414 1320C 433 1059 606 784 838 646C 929 592 1087 535 1195 519C 1294 503 1428 514 1530 546C 1683 594 1792 661 1910 780C 2078 950 2162 1145 2159 1363C 2158 1437 2157 1441 2149 1402C 2109 1195 1827 1127 1687 1291C 1651 1332 1620 1409 1620 1455C 1620 1495 1650 1577 1679 1617C 1721 1675 1814 1720 1889 1719C 1993 1718 2081 1665 2123 1579C 2156 1515 2157 1525 2129 1616C 2068 1813 1948 1983 1802 2080L1802 2080L1757 2110L1291 2110L825 2110L770 2078zM1076 2081C 1173 2037 1225 1924 1195 1823C 1126 1590 800 1626 782 1869C 770 2031 931 2147 1076 2081zM1687 2079C 1820 2015 1850 1845 1748 1734C 1595 1568 1331 1726 1395 1945C 1432 2073 1570 2136 1687 2079zM1383 1700C 1476 1665 1538 1582 1547 1480C 1557 1370 1496 1264 1397 1219C 1340 1194 1230 1194 1174 1219C 1123 1242 1070 1294 1044 1346C 1017 1402 1018 1520 1047 1575C 1112 1697 1252 1749 1383 1700zM1049 1184C 1082 1175 1118 1154 1145 1129C 1264 1019 1263 846 1142 740C 1011 624 810 665 727 824C 698 881 698 989 728 1046C 792 1170 917 1224 1049 1184zM1719 1171C 1769 1145 1815 1098 1842 1046C 1873 988 1873 881 1843 824C 1758 664 1559 624 1428 740C 1306 847 1306 1023 1428 1130C 1453 1152 1494 1177 1519 1185C 1577 1204 1667 1197 1719 1171z" stroke="none" fill="#000000" fill-rule="nonzero" />
        <path d="M942 1937C 912 1905 913 1856 945 1825C 977 1792 1005 1794 1042 1830C 1067 1856 1071 1866 1066 1893C 1054 1957 984 1981 942 1937z" stroke="none" fill="#000000" fill-rule="nonzero" />
        <path d="M1545 1935C 1518 1909 1514 1884 1531 1847C 1542 1822 1578 1800 1606 1800C 1634 1800 1670 1847 1670 1883C 1670 1952 1593 1984 1545 1935z" stroke="none" fill="#000000" fill-rule="nonzero" />
        <path d="M1218 1564C 1157 1532 1140 1435 1186 1381C 1285 1263 1465 1384 1395 1520C 1366 1575 1278 1597 1218 1564z" stroke="none" fill="#000000" fill-rule="nonzero" />
        <path d="M903 1041C 840 1002 823 928 863 869C 946 745 1144 845 1087 983C 1058 1051 966 1080 903 1041z" stroke="none" fill="#000000" fill-rule="nonzero" />
        <path d="M1540 1042C 1466 1006 1451 910 1511 851C 1568 794 1662 802 1707 869C 1735 911 1736 955 1710 997C 1674 1057 1606 1075 1540 1042z" stroke="none" fill="#000000" fill-rule="nonzero" />
        <path d="M600 1558C 578 1543 560 1520 551 1494C 538 1457 539 1450 556 1415C 583 1361 622 1335 674 1336C 833 1339 841 1563 683 1577C 644 1581 628 1577 600 1558z" stroke="none" fill="#000000" fill-rule="nonzero" />
        <path d="M1830 1567C 1798 1551 1760 1494 1760 1463C 1760 1381 1845 1316 1923 1340C 2000 1363 2036 1433 2006 1503C 1979 1568 1893 1599 1830 1567z" stroke="none" fill="#000000" fill-rule="nonzero" />
	</g>
</g>
</svg>